<?xml version="1.0" encoding="UTF-8"?>
<svg version="1.1" xmlns="http://www.w3.org/2000/svg" width="1150" height="640">
<path d="M0 0 C379.5 0 759 0 1150 0 C1150 211.2 1150 422.4 1150 640 C770.5 640 391 640 0 640 C0 428.8 0 217.6 0 0 Z " fill="#F6F5E9" transform="translate(0,0)"/>
<path d="M0 0 C2.86688248 0.09096556 5.70300515 0.23767988 8.5625 0.4375 C9.36880859 0.48970703 10.17511719 0.54191406 11.00585938 0.59570312 C13.00421738 0.72577376 15.00215386 0.86229056 17 1 C17 1.66 17 2.32 17 3 C18.299375 3.020625 19.59875 3.04125 20.9375 3.0625 C26.19076255 3.61678125 29.07363336 5.94473209 33.01171875 9.3046875 C35.00073939 11.10108501 35.00073939 11.10108501 37.5625 12.5 C48.47304598 19.21418214 55.43917723 30.2225095 60 42 C60.4054103 44.32189536 60.76072994 46.65515344 61 49 C61.66 49 62.32 49 63 49 C63.48597153 50.97750678 63.96338757 52.9571165 64.4375 54.9375 C64.83775391 56.59072266 64.83775391 56.59072266 65.24609375 58.27734375 C66.72699832 65.58978965 67.16819377 72.86089371 67.23828125 80.30859375 C67.25331192 81.61498558 67.25331192 81.61498558 67.26864624 82.94776917 C67.65709897 125.69720504 62.35475957 166.78030919 47 207 C46.34813721 208.76102051 46.34813721 208.76102051 45.68310547 210.55761719 C43.48402128 216.49142338 41.05841278 222.17878481 38.11328125 227.78125 C36.96752029 229.97584904 36.96752029 229.97584904 36.125 232.265625 C34.56234526 236.06374417 32.6257367 239.63214355 30.6875 243.25 C30.28088135 244.01143311 29.8742627 244.77286621 29.45532227 245.55737305 C28.65588161 247.05186829 27.85507084 248.54563162 27.05273438 250.03857422 C26.22199617 251.58638284 25.39869559 253.13818334 24.578125 254.69140625 C21.14633496 261.07312541 17.06613704 267.00992536 13 273 C12.31292969 274.03640625 11.62585938 275.0728125 10.91796875 276.140625 C8.41464242 279.87267159 5.71981146 283.4243858 3 287 C2.278125 287.97195313 1.55625 288.94390625 0.8125 289.9453125 C-7.56243816 301.13529836 -16.97046172 313.04626871 -28.3125 321.3125 C-29.00988281 321.82425781 -29.70726562 322.33601563 -30.42578125 322.86328125 C-30.94527344 323.23839844 -31.46476563 323.61351562 -32 324 C-31.24369449 329.88127047 -29.48590117 335.41304714 -27.75 341.0625 C-27.27965332 342.60188232 -27.27965332 342.60188232 -26.79980469 344.17236328 C-24.79033812 350.6656702 -22.60407817 357.00991465 -20.06640625 363.31640625 C-18.5392608 367.15944259 -17.26732614 371.06461883 -16 375 C-15.34 375 -14.68 375 -14 375 C-13.525625 376.0725 -13.05125 377.145 -12.5625 378.25 C-2.95687713 397.35977789 12.41686487 408.72751581 32 416 C39.56210993 418.48686837 47.09541584 418.39921884 55 418.375 C55.6935257 418.37412384 56.38705139 418.37324768 57.10159302 418.37234497 C67.58542034 418.32855566 77.10474493 417.76486136 87 414 C87.64888184 413.75330566 88.29776367 413.50661133 88.96630859 413.25244141 C99.7913451 409.04284855 111.42422951 403.86502639 120.2734375 396.2578125 C123 394 123 394 125 394 C125 393.34 125 392.68 125 392 C126.68175383 390.52736092 128.42211247 389.12126535 130.1875 387.75 C133.44951252 385.15464556 136.47881719 382.71799424 139.0625 379.4375 C139.701875 378.633125 140.34125 377.82875 141 377 C141.66 377 142.32 377 143 377 C143.21914063 376.47148437 143.43828125 375.94296875 143.6640625 375.3984375 C145.4890697 372.12196259 147.91639012 369.43299129 150.375 366.625 C153.91218799 362.57709503 157.08982974 358.53890752 160 354 C160.63164063 353.06542969 161.26328125 352.13085938 161.9140625 351.16796875 C170.84373753 337.60623383 178.82331395 323.55989544 186 309 C186.515625 307.989375 187.03125 306.97875 187.5625 305.9375 C189.09604571 302.80373269 190.49189167 299.62525519 191.890625 296.4296875 C193.06024253 293.86806038 194.33238687 291.37658658 195.625 288.875 C197.60394368 284.98327793 198.81010722 281.20428783 200 277 C200.98945034 275.30835909 201.9800973 273.61723803 202.99609375 271.94140625 C204.54598042 268.9441546 205.31811501 265.77333196 206.2265625 262.53515625 C207.45209686 258.51812696 209.21809956 254.79538362 211 251 C211.73100888 249.39667198 212.46002888 247.79243629 213.1875 246.1875 C213.60515625 245.27355469 214.0228125 244.35960937 214.453125 243.41796875 C215.68472276 240.69663531 216.90100917 237.96993657 218.109375 235.23828125 C228.2093729 212.46714276 228.2093729 212.46714276 233.0625 206.4375 C234.95870389 204.05195318 236.11724561 201.85981266 237.4375 199.125 C239.26974308 195.33124516 241.27176235 192.01466027 243.8125 188.6640625 C245.06826812 186.90433481 246.05564702 185.09894745 247.0625 183.1875 C249.03658911 179.93980502 249.7371671 179.46264923 253 178 C253.13535156 177.40445313 253.27070312 176.80890625 253.41015625 176.1953125 C254.14346289 173.46605201 255.35438587 172.14355465 257.25 170.0625 C257.83265625 169.41410156 258.4153125 168.76570312 259.015625 168.09765625 C266.54866904 160.13457624 274.65588628 152.93076321 285 149 C285.86625 148.34 286.7325 147.68 287.625 147 C298.88841395 140.32538433 314.32717426 140.66463036 327 142 C331.38616746 143.15635324 335.03534858 144.84161247 339 147 C340.47076193 147.52420738 341.94954082 148.0268071 343.4375 148.5 C347.38314611 150.16132468 349.10167384 151.88960119 352 155 C354.30529919 156.82973048 356.64917964 158.59653345 359.01171875 160.3515625 C361 162 361 162 363 165 C363 166.32 363 167.64 363 169 C363.66 169 364.32 169 365 169 C367.3557402 176.06722061 366.18925247 182.50759318 363 189 C360.953125 189.60546875 360.953125 189.60546875 359 190 C358.29848848 191.3153341 357.63474075 192.65117592 357 194 C352.1388537 198.37503167 347.04753511 198.29026673 340.75390625 198.21484375 C334.17072815 197.70126248 330.49442952 194.73097844 326 190 C320.5777197 185.89665275 314.71482626 185.56718983 308.1875 186.4375 C296.3338118 189.20093651 287.85223933 199.42001531 281.5546875 209.2578125 C280.65507086 210.81169579 279.81715738 212.40121383 279 214 C278.34 214 277.68 214 277 214 C276.83201904 214.5561499 276.66403809 215.1122998 276.4909668 215.68530273 C274.76304641 221.16061792 272.58893777 226.04821975 269.8125 231.0625 C269.01576607 232.54104163 268.22022225 234.02022509 267.42578125 235.5 C266.8237085 236.61568359 266.8237085 236.61568359 266.20947266 237.75390625 C264.27722917 241.342247 262.37013591 244.94139718 260.5 248.5625 C259.99303589 249.5071814 259.99303589 249.5071814 259.47583008 250.47094727 C257.81363806 253.71842969 256.81249299 256.55230996 256.46875 260.15234375 C255.98850914 264.09432083 255.14761995 265.76270097 253 269 C252.16951847 271.0681669 251.37971789 273.15299862 250.625 275.25 C248.81030042 280.09830882 246.74593963 284.4788943 244.12890625 288.93359375 C242.97840449 291.03952949 242.12699573 293.11978821 241.3125 295.375 C240 299 240 299 238 302 C237.608125 303.2375 237.21625 304.475 236.8125 305.75 C233.57479431 315.7706991 228.4278082 325.21388972 223.75 334.625 C223.42104736 335.28765869 223.09209473 335.95031738 222.75317383 336.63305664 C220.97161844 340.18388709 219.06603536 343.60835813 217 347 C216.319375 348.423125 216.319375 348.423125 215.625 349.875 C214.35533046 352.31667219 213.12796068 354.25876221 211.5 356.4375 C209.76749231 358.78209125 208.47164936 360.98627948 207.375 363.6875 C206.15375964 366.62957904 204.96183317 368.54770853 203 371 C202.55914063 371.74765625 202.11828125 372.4953125 201.6640625 373.265625 C194.10543673 385.68590209 184.02521103 396.90759528 174.22265625 407.55859375 C172.48874268 409.46315611 170.81478557 411.3804274 169.1875 413.375 C164.78026598 418.66368083 159.76825472 422.90098605 154.375 427.125 C153.04812256 428.16754656 151.72255346 429.21176089 150.3984375 430.2578125 C149.52711182 430.94061279 149.52711182 430.94061279 148.63818359 431.63720703 C146.9907298 433.00771182 145.51328322 434.48485836 144 436 C142.3359375 437.03515625 142.3359375 437.03515625 140.375 438.0625 C137.25885169 439.72646269 134.2218544 441.46555403 131.2265625 443.3359375 C122.08888979 448.99274584 113.1921241 453.16337394 102.93310547 456.35961914 C100.99873119 457.00042032 99.13933056 457.75173007 97.25390625 458.5234375 C70.61899958 468.6033469 33.99292169 466.93454506 7.91015625 455.82421875 C-4.04998176 450.37997621 -14.61680138 444.29484458 -24 435 C-25.26630021 433.97354891 -26.53707004 432.95258446 -27.8125 431.9375 C-44.65400325 417.05745697 -56.47581836 395.90903538 -64 375 C-64.47824219 373.91203125 -64.95648438 372.8240625 -65.44921875 371.703125 C-67.36235905 367.30644065 -68.76367087 362.76133136 -70.1875 358.1875 C-70.46013672 357.32962891 -70.73277344 356.47175781 -71.01367188 355.58789062 C-73 349.26051457 -73 349.26051457 -73 347 C-73.74121094 347.25394531 -74.48242188 347.50789063 -75.24609375 347.76953125 C-101.92308573 356.4877159 -131.25080131 357.59345799 -157.00048828 345.0234375 C-161.3902679 342.78237771 -165.69375695 340.39647187 -170 338 C-171.32816917 337.32310349 -172.65875542 336.65060372 -174 336 C-174.54527344 336.70125 -175.09054687 337.4025 -175.65234375 338.125 C-180.08995612 343.70804735 -184.58592563 348.6847199 -190.01953125 353.3046875 C-192.13876319 355.0673324 -192.13876319 355.0673324 -194.4375 357.5 C-202.39590806 365.26430055 -211.59361991 371.1770028 -221 377 C-221.88042969 377.56074219 -222.76085937 378.12148438 -223.66796875 378.69921875 C-229.0761693 381.71585323 -234.94632479 381.48464649 -241 381 C-247.36426685 378.71847037 -252.31609114 374.90665128 -255.375 368.875 C-257.88797169 362.57679898 -258.09158836 356.15347748 -255.875 349.75 C-251.53917825 343.39079477 -247.19736355 339.09514862 -240.5 335.3125 C-234.67851407 331.85285469 -229.37747247 328.11508619 -224.25 323.6875 C-223.67830078 323.19612549 -223.10660156 322.70475098 -222.51757812 322.19848633 C-220.00946121 319.98356015 -217.81659321 317.7688442 -215.734375 315.14453125 C-214.87585938 314.08298828 -214.87585938 314.08298828 -214 313 C-213.34 313 -212.68 313 -212 313 C-211.5978125 312.13375 -211.5978125 312.13375 -211.1875 311.25 C-210 309 -210 309 -208.25 307.0625 C-206.71067581 305.05565133 -206.71067581 305.05565133 -207.5 302.6875 C-209.10004455 299.82075352 -210.92973788 297.30758236 -212.9765625 294.74609375 C-214 293 -214 293 -214 289 C-214.66 289 -215.32 289 -216 289 C-222.39155522 276.46918778 -227.60414309 263.67863857 -231 250 C-231.41378906 248.39511719 -231.41378906 248.39511719 -231.8359375 246.7578125 C-235.7091967 230.45944458 -236.19710495 213.9694705 -236.29653931 197.29290771 C-236.30703683 195.53819604 -236.32186754 193.78350399 -236.34140015 192.02886963 C-236.52493231 172.96477916 -234.77837668 152.54045503 -221 138 C-219.06599607 136.20874398 -217.08609361 134.62251725 -215 133 C-214.13375 132.01 -214.13375 132.01 -213.25 131 C-204.89598118 123.5742055 -194.27974285 121.49490866 -183.44921875 121.68359375 C-174.47636992 122.50669766 -166.95506225 125.34901192 -160 131 C-159.21367187 131.42667969 -158.42734375 131.85335937 -157.6171875 132.29296875 C-146.10990359 139.79846587 -139.38132811 156.33410844 -136 169 C-135.505 170.75763672 -135.505 170.75763672 -135 172.55078125 C-130.58156686 189.17168405 -129.56160277 205.42267113 -129.94677734 222.58642578 C-129.99066812 224.57681228 -130.00860457 226.56775337 -130.01953125 228.55859375 C-130.72699064 249.54655556 -136.80476401 274.88632651 -147.34130859 293.18676758 C-148.18922362 295.52089096 -147.90258057 296.71394345 -147 299 C-144.97698117 300.47503619 -144.97698117 300.47503619 -142.4375 301.5625 C-141.08011719 302.19091797 -141.08011719 302.19091797 -139.6953125 302.83203125 C-121.59359233 310.67610999 -101.54854138 309.18284713 -83 303 C-83.11069824 302.22624023 -83.22139648 301.45248047 -83.33544922 300.65527344 C-83.8528941 297.02077506 -84.36394154 293.38540169 -84.875 289.75 C-85.04902344 288.53441406 -85.22304688 287.31882812 -85.40234375 286.06640625 C-85.86558125 282.75511599 -86.30749968 279.44289978 -86.72802734 276.12600708 C-86.90780394 274.7206955 -87.09325452 273.31609689 -87.28466797 271.912323 C-89.42994329 255.90549787 -89.30828656 239.85342814 -89.26074219 223.73754883 C-89.24935832 219.84721469 -89.25611971 215.95715444 -89.26761532 212.06682968 C-89.30901553 195.6062665 -89.04932401 179.35734395 -87 163 C-86.83552292 161.55270258 -86.67289422 160.10519379 -86.51220703 158.6574707 C-86.03813796 154.47278132 -85.50462051 150.29804289 -84.9375 146.125 C-84.83628845 145.37996216 -84.7350769 144.63492432 -84.63079834 143.86730957 C-79.83431853 109.27495568 -73.02278094 62.92114408 -52.4296875 34.03515625 C-50.94421515 31.99146189 -50.94421515 31.99146189 -49.66796875 29.640625 C-47.57273071 26.32357368 -45.09473944 23.56122938 -42.4375 20.6875 C-41.6959668 19.86282227 -41.6959668 19.86282227 -40.93945312 19.02148438 C-39.67043817 17.63913385 -38.33941037 16.31425713 -37 15 C-36.34 15 -35.68 15 -35 15 C-34.67 14.01 -34.34 13.02 -34 12 C-31.77734375 10.53515625 -31.77734375 10.53515625 -28.9375 9.0625 C-27.44863281 8.28519531 -27.44863281 8.28519531 -25.9296875 7.4921875 C-24.96289062 6.99976563 -23.99609375 6.50734375 -23 6 C-22.21882812 5.59007812 -21.43765625 5.18015625 -20.6328125 4.7578125 C-15.38621513 2.04542065 -11.68102114 0.86130526 -5.8125 1 C-4.20877332 1.037569 -2.60348584 1.04673183 -1 1 C-0.67 0.67 -0.34 0.34 0 0 Z " fill="#B1A8C1" transform="translate(547,19)"/>
<path d="M0 0 C0.99 0.804375 1.98 1.60875 3 2.4375 C4.17949219 3.07751953 4.17949219 3.07751953 5.3828125 3.73046875 C16.89009641 11.23596587 23.61867189 27.77160844 27 40.4375 C27.495 42.19513672 27.495 42.19513672 28 43.98828125 C32.41843314 60.60918405 33.43839723 76.86017113 33.05322266 94.02392578 C33.00933188 96.01431228 32.99139543 98.00525337 32.98046875 99.99609375 C32.26290251 121.28389225 25.96765533 157.76870453 10 173.4375 C9.24701595 174.68239698 8.54240858 175.95720486 7.875 177.25 C5.58014526 181.50489785 3.06004099 185.56783791 0.4375 189.625 C0.06157715 190.20677002 -0.3143457 190.78854004 -0.70166016 191.38793945 C-2.45207888 194.08487237 -4.22224197 196.76508209 -6.02734375 199.42578125 C-8.07277376 202.45886687 -8.07277376 202.45886687 -9.87890625 205.89453125 C-12.07241735 209.78804022 -14.87109877 212.89781369 -17.9375 216.125 C-18.44990234 216.67994141 -18.96230469 217.23488281 -19.49023438 217.80664062 C-22.46847345 220.98923156 -25.54392369 223.76472126 -29 226.4375 C-29.721875 227.18 -30.44375 227.9225 -31.1875 228.6875 C-39.23068734 236.55194984 -48.48275905 242.54587465 -58 248.4375 C-58.88042969 248.99824219 -59.76085937 249.55898438 -60.66796875 250.13671875 C-66.0761693 253.15335323 -71.94632479 252.92214649 -78 252.4375 C-84.36426685 250.15597037 -89.31609114 246.34415128 -92.375 240.3125 C-94.88797169 234.01429898 -95.09158836 227.59097748 -92.875 221.1875 C-88.53917825 214.82829477 -84.19736355 210.53264862 -77.5 206.75 C-71.67851407 203.29035469 -66.37747247 199.55258619 -61.25 195.125 C-60.67830078 194.63362549 -60.10660156 194.14225098 -59.51757812 193.63598633 C-57.00946121 191.42106015 -54.81659321 189.2063442 -52.734375 186.58203125 C-51.87585938 185.52048828 -51.87585938 185.52048828 -51 184.4375 C-50.34 184.4375 -49.68 184.4375 -49 184.4375 C-48.731875 183.86 -48.46375 183.2825 -48.1875 182.6875 C-47 180.4375 -47 180.4375 -45.25 178.5 C-43.71067581 176.49315133 -43.71067581 176.49315133 -44.5 174.125 C-46.10004455 171.25825352 -47.92973788 168.74508236 -49.9765625 166.18359375 C-51 164.4375 -51 164.4375 -51 160.4375 C-51.66 160.4375 -52.32 160.4375 -53 160.4375 C-59.39155522 147.90668778 -64.60414309 135.11613857 -68 121.4375 C-68.27585937 120.36757813 -68.55171875 119.29765625 -68.8359375 118.1953125 C-72.7091967 101.89694458 -73.19710495 85.4069705 -73.29653931 68.73040771 C-73.30703683 66.97569604 -73.32186754 65.22100399 -73.34140015 63.46636963 C-73.52493231 44.40227916 -71.77837668 23.97795503 -58 9.4375 C-56.06599607 7.64624398 -54.08609361 6.06001725 -52 4.4375 C-51.13375 3.4475 -51.13375 3.4475 -50.25 2.4375 C-36.98227293 -9.35603517 -14.35434069 -10.25310049 0 0 Z " fill="#7BAFE1" transform="translate(384,147.5625)"/>
<path d="M0 0 C0 0.66 0 1.32 0 2 C0.53625 2.226875 1.0725 2.45375 1.625 2.6875 C8.42594094 6.44591473 10.72096906 9.81345578 13 17 C13.556875 18.051875 13.556875 18.051875 14.125 19.125 C16.54321427 24.30688772 16.16026894 30.32156612 16.16796875 35.921875 C16.17296135 37.21016205 16.17296135 37.21016205 16.17805481 38.5244751 C16.18310515 40.343297 16.18546372 42.16212812 16.18530273 43.98095703 C16.18746009 46.6997107 16.20555436 49.41803833 16.22460938 52.13671875 C16.27322279 66.94828165 15.26596698 81.4887644 12.125 96 C11.86456909 97.24160889 11.86456909 97.24160889 11.59887695 98.50830078 C11.24280535 100.19678494 10.88294932 101.88447611 10.51904297 103.57128906 C10.02672914 105.87492873 9.55914268 108.1822057 9.09765625 110.4921875 C7.35621716 119.00179295 5.11522477 127.27852373 2.5 135.5625 C2.21535889 136.46661621 1.93071777 137.37073242 1.63745117 138.30224609 C0.00034576 143.34847066 -1.88615268 148.17094911 -4.09814453 152.99194336 C-5.27487102 155.61202332 -6.2278416 158.29383686 -7.1875 161 C-9.28497026 166.5302865 -11.7964195 171.72039777 -14.5625 176.9375 C-14.93850342 177.64712891 -15.31450684 178.35675781 -15.7019043 179.08789062 C-17.93106897 183.21709468 -20.36929729 187.10944599 -23 191 C-23.70612522 192.28157957 -24.39518512 193.57279039 -25.0625 194.875 C-31.39235274 206.40507023 -39.4529598 217.039005 -48 227 C-55.34696705 214.59572929 -52.30749847 193.57717297 -52.26074219 179.80908203 C-52.24939433 176.43988213 -52.25610174 173.07099971 -52.2676096 169.70181084 C-52.31230274 154.34429425 -51.89147619 139.24407272 -50 124 C-49.90910095 123.2268042 -49.8182019 122.4536084 -49.72454834 121.65698242 C-49.08432993 116.21733752 -48.35510746 110.79445868 -47.5625 105.375 C-47.44183167 104.54535736 -47.32116333 103.71571472 -47.19683838 102.8609314 C-36.2293174 29.00673682 -36.2293174 29.00673682 -17.125 7.375 C-16.46757813 6.61960937 -15.81015625 5.86421875 -15.1328125 5.0859375 C-10.13551271 0.19846847 -6.70464476 -0.34091414 0 0 Z " fill="#F6F4E8" transform="translate(554,63)"/>
<path d="M0 0 C0.52335937 0.268125 1.04671875 0.53625 1.5859375 0.8125 C24.36004883 12.0152991 43.78943312 11.17711102 68 5 C68.15855469 6.16273438 68.31710937 7.32546875 68.48046875 8.5234375 C69.8213606 17.87620736 71.56182389 26.89205445 74.28588867 35.94677734 C75.58929529 40.30429921 76.46747683 44.47947 77 49 C48.4589087 58.77842606 18.4647085 59.48004054 -9.1015625 46.0390625 C-10.46692884 45.34516665 -11.82900137 44.6447469 -13.1875 43.9375 C-13.82373291 43.60919189 -14.45996582 43.28088379 -15.11547852 42.94262695 C-18.56184176 41.07310443 -20.93941326 39.36437617 -23 36 C-20.28123999 29.99607165 -16.89522716 25.01747034 -12.95703125 19.7421875 C-10.72520916 16.61496374 -8.8921879 13.39403484 -7.08984375 10.0078125 C-5.10513753 6.35140032 -2.95314124 2.95314124 0 0 Z " fill="#BE96AE" transform="translate(397,317)"/>
<path d="M0 0 C0.99 0 1.98 0 3 0 C3 211.2 3 422.4 3 640 C2.01 640 1.02 640 0 640 C0 428.8 0 217.6 0 0 Z " fill="#13181C" transform="translate(1147,0)"/>
<path d="M0 0 C3 1 3 1 4.07128906 2.71704102 C15.54552247 29.74437828 14.92528358 61.28599062 6 89 C-5.39463274 74.55683728 -5.19099103 48.69061966 -5.24023438 31.10253906 C-5.24998672 29.00285891 -5.28115024 26.90414168 -5.3125 24.8046875 C-5.37433036 16.90992699 -5.05396503 9.38896754 -2 2 C-1.34 1.34 -0.68 0.68 0 0 Z " fill="#F3F3E8" transform="translate(360,186)"/>
<path d="M0 0 C0.66 0.33 1.32 0.66 2 1 C-0.31046621 3.93251481 -2.66314929 6.82742609 -5.0625 9.6875 C-5.54847656 10.26886719 -6.03445313 10.85023438 -6.53515625 11.44921875 C-8 13 -8 13 -11 15 C-8.28522278 9.11798269 -4.70031983 4.43919095 0 0 Z " fill="#7DC6F4" transform="translate(330,153)"/>
<path d="M0 0 C2.4978977 3.74684655 2.53859847 7.6599891 2 12 C1.18004633 14.78689457 0.14814208 17.32100182 -1 20 C-2.51303606 15.46089183 -1.49050192 11.47150576 0 7 C0.03954234 4.66700175 0.04401732 2.33291811 0 0 Z " fill="#AEE1E0" transform="translate(911,188)"/>
<path d="M0 0 C0.66 0.66 1.32 1.32 2 2 C1.73760976 3.67929755 1.37966646 5.34327363 1 7 C0.76208328 9.53094162 0.56252044 12.06221773 0.37890625 14.59765625 C-0.01358497 17.08613148 -0.75852193 18.82364371 -2 21 C-2.22424141 13.63740707 -1.90120099 7.12950371 0 0 Z " fill="#74C2F4" transform="translate(313,185)"/>
<path d="M0 0 C0 0.33 0 0.66 0 1 C-0.77085937 0.98839844 -1.54171875 0.97679688 -2.3359375 0.96484375 C-3.33882812 0.95582031 -4.34171875 0.94679688 -5.375 0.9375 C-6.87160156 0.92009766 -6.87160156 0.92009766 -8.3984375 0.90234375 C-10.98432453 0.81993398 -10.98432453 0.81993398 -13 2 C-13.99 1.34 -14.98 0.68 -16 0 C-10.75881575 -1.74706142 -5.31166864 -1.32791716 0 0 Z " fill="#E8BFDD" transform="translate(558,19)"/>
<path d="M0 0 C-2.96178773 1.67110042 -5.37071192 2.32682752 -8.75 2.625 C-9.54921875 2.69976562 -10.3484375 2.77453125 -11.171875 2.8515625 C-11.77515625 2.90054688 -12.3784375 2.94953125 -13 3 C-9.54666565 -0.45333435 -4.63654999 -1.85462 0 0 Z " fill="#AAE3E2" transform="translate(849,163)"/>
</svg>
