<?xml version="1.0" standalone="no"?>
<!DOCTYPE svg PUBLIC "-//W3C//DTD SVG 20010904//EN"
 "http://www.w3.org/TR/2001/REC-SVG-20010904/DTD/svg10.dtd">
<svg version="1.0" xmlns="http://www.w3.org/2000/svg"
 width="646.000000pt" height="574.000000pt" viewBox="0 0 646.000000 574.000000"
 preserveAspectRatio="xMidYMid meet">

<g transform="translate(0.000000,574.000000) scale(0.100000,-0.100000)"
fill="#000000" stroke="none">
<path d="M3095 5439 c-378 -40 -647 -92 -882 -172 -184 -63 -259 -120 -313
-240 -26 -59 -71 -225 -85 -312 -16 -101 -9 -92 -87 -100 -87 -9 -128 -25
-161 -64 -47 -56 -52 -89 -52 -326 0 -236 9 -303 60 -450 42 -121 86 -160 193
-170 85 -8 102 -13 102 -30 0 -21 72 -228 88 -253 8 -12 12 -25 9 -29 -3 -3
-38 2 -77 11 -84 19 -182 68 -262 131 l-56 45 5 80 c7 93 -5 147 -54 241 -50
97 -80 122 -153 127 -52 4 -66 1 -99 -21 -21 -14 -44 -39 -51 -56 -21 -52 -37
-40 -94 72 -106 210 -212 285 -324 228 -47 -24 -81 -56 -110 -103 -16 -26 -28
-35 -42 -31 -53 14 -162 -62 -202 -141 -16 -31 -19 -51 -14 -91 5 -48 4 -52
-24 -68 -17 -10 -40 -40 -56 -74 -35 -70 -36 -136 -4 -188 26 -42 130 -114
250 -175 57 -29 98 -58 127 -90 29 -32 72 -63 131 -93 82 -42 228 -97 258 -97
8 0 69 -51 135 -114 239 -225 384 -307 819 -461 l175 -62 2 -69 c5 -151 24
-395 39 -499 15 -109 22 -211 45 -628 l11 -217 -65 -69 c-103 -109 -161 -253
-137 -340 11 -41 51 -84 93 -100 18 -7 172 -11 434 -11 390 0 408 1 449 21 61
29 88 87 79 166 -4 32 -16 77 -26 101 l-19 44 45 201 c50 222 60 265 76 332
l12 46 75 -3 74 -3 64 -285 64 -284 -21 -55 c-11 -31 -21 -83 -22 -118 -2 -67
12 -97 67 -137 27 -20 41 -21 448 -24 404 -3 422 -2 462 17 54 27 80 71 80
137 -2 104 -58 216 -154 311 l-53 51 11 174 c7 95 15 246 18 336 6 135 10 162
21 157 8 -3 21 -5 29 -5 16 0 11 -35 -18 -119 -10 -30 -18 -76 -18 -102 0 -42
4 -52 37 -84 38 -37 163 -105 193 -105 10 0 43 -11 75 -25 40 -18 73 -25 109
-24 28 0 71 -6 95 -15 85 -31 173 -12 234 50 37 36 49 61 81 159 32 97 35 214
10 378 -16 102 -16 115 1 222 21 136 16 364 -10 485 -74 336 -249 583 -512
724 -66 36 -72 58 -31 116 18 24 47 83 64 130 l33 85 78 7 c95 8 121 17 161
57 78 79 142 394 128 631 -15 255 -39 295 -194 323 -67 12 -67 12 -70 47 -9
120 -70 390 -108 477 -27 63 -100 144 -160 177 -53 29 -214 85 -344 120 -370
97 -884 147 -1185 115z m394 -110 c64 -5 190 -20 281 -31 91 -12 181 -23 201
-25 32 -4 39 -11 62 -59 15 -30 27 -64 27 -76 l0 -21 -347 8 c-192 4 -359 8
-373 8 -14 0 -181 -4 -372 -8 -398 -9 -371 -17 -320 85 25 49 32 55 67 62 126
23 499 63 609 67 28 0 102 -4 165 -10z m-944 -125 c-8 -20 -15 -58 -15 -85 0
-89 -51 -84 770 -86 393 -1 737 0 764 4 57 6 96 38 96 77 0 14 -7 46 -16 72
-8 25 -13 48 -10 51 12 13 334 -81 411 -119 46 -23 111 -82 130 -118 16 -31
59 -189 79 -290 70 -358 52 -747 -50 -1102 -51 -180 -73 -236 -115 -288 -49
-62 -113 -101 -239 -145 -645 -223 -1333 -228 -1974 -14 -265 89 -304 131
-391 421 -119 399 -127 873 -20 1283 44 167 89 222 230 276 91 35 309 98 343
98 22 1 22 0 7 -35z m-767 -781 c-15 -175 -1 -422 37 -618 8 -44 15 -83 15
-87 0 -7 -27 -4 -87 8 -74 15 -135 345 -115 623 10 136 21 151 106 151 l52 0
-8 -77z m3235 -52 c24 -24 35 -288 17 -442 -12 -102 -53 -254 -79 -289 -14
-19 -31 -27 -71 -33 -29 -4 -54 -6 -56 -5 -1 2 4 28 12 58 47 177 74 396 74
590 l0 143 46 -6 c25 -2 51 -10 57 -16z m-4092 -341 c17 -16 27 -34 24 -40 -3
-6 -32 -28 -64 -50 l-58 -39 -26 27 -26 28 20 34 c25 42 57 69 82 70 10 0 32
-13 48 -30z m95 -141 c14 -28 24 -52 22 -54 -2 -1 -23 -12 -47 -25 l-43 -22
-34 33 -33 32 37 27 c20 15 43 34 51 43 7 9 15 17 17 17 2 0 15 -23 30 -51z
m-314 -28 l41 -38 -23 -34 c-41 -58 -82 -89 -102 -78 -18 10 -78 86 -78 99 0
3 16 25 36 48 46 54 72 54 126 3z m709 -93 c34 -57 59 -139 58 -187 l0 -36
-27 34 c-15 18 -51 62 -79 96 -56 67 -65 101 -37 130 27 26 55 14 85 -37z
m-593 -102 c-23 -28 -45 -55 -49 -60 -5 -5 -23 5 -42 21 l-35 31 34 31 c18 18
41 45 50 61 l17 28 33 -31 34 -30 -42 -51z m330 50 c15 -8 63 -51 106 -95 l79
-82 -45 -28 c-51 -32 -95 -85 -131 -157 -29 -57 -57 -157 -57 -202 l0 -31 -52
18 c-161 56 -253 117 -264 176 -18 98 110 300 245 387 50 31 79 35 119 14z
m-597 -93 c16 -10 28 -20 27 -23 -42 -83 -70 -130 -77 -130 -4 0 -21 12 -36
26 -23 21 -27 31 -22 61 7 38 41 83 65 83 8 0 27 -8 43 -17z m132 -111 c17
-18 17 -22 0 -76 -9 -31 -21 -56 -26 -56 -7 0 -63 30 -85 46 -2 1 11 30 28 63
33 66 42 68 83 23z m825 -123 c159 -141 312 -209 475 -209 l60 0 -7 -37 c-14
-87 -18 -372 -7 -477 7 -59 10 -110 8 -113 -12 -11 -330 135 -435 199 -189
115 -375 286 -388 357 -16 86 49 251 118 302 65 46 106 41 176 -22z m3058
-574 c-3 -115 -8 -225 -12 -242 -7 -37 -48 -83 -74 -83 -15 0 -18 22 -24 213
-4 116 -11 250 -14 295 l-7 84 60 27 60 27 8 -55 c5 -31 6 -150 3 -266z
m-2378 295 c9 -5 33 -16 53 -24 l36 -14 -8 -63 c-4 -35 -11 -166 -15 -291 -6
-201 -9 -228 -23 -228 -29 0 -60 30 -71 68 -14 45 -25 427 -16 506 8 57 13 63
44 46z m2628 -158 c200 -170 309 -412 329 -730 6 -88 -6 -266 -17 -278 -3 -2
-26 4 -52 15 -69 30 -203 45 -280 32 -34 -6 -67 -11 -72 -11 -7 0 -7 23 0 66
18 125 -24 282 -94 349 l-28 27 30 48 c41 65 61 219 56 427 l-3 151 29 -16
c15 -10 62 -45 102 -80z m-2214 26 l127 -30 11 -53 c21 -99 90 -180 181 -210
134 -44 733 -44 867 0 92 30 159 109 182 215 l12 55 147 37 c80 20 156 40 168
43 19 6 22 2 27 -37 11 -81 26 -411 26 -562 0 -180 -15 -435 -35 -601 -14
-115 -17 -121 -47 -147 -98 -85 -327 -169 -578 -214 -136 -25 -524 -25 -670
-1 -238 40 -477 128 -578 215 -30 25 -33 34 -47 137 -29 222 -40 570 -27 877
7 156 15 295 18 310 l6 26 42 -14 c22 -8 98 -29 168 -46z m345 -65 c153 -25
641 -24 796 0 143 23 141 23 132 -10 -12 -51 -54 -103 -98 -122 -74 -32 -378
-47 -611 -32 -212 15 -257 28 -301 86 -23 30 -45 95 -32 95 4 0 55 -8 114 -17z
m1586 -582 c20 -22 44 -55 53 -73 20 -37 30 -162 20 -231 -7 -42 -9 -45 -44
-50 -21 -2 -57 -14 -81 -25 l-43 -21 5 47 c4 26 9 119 12 207 4 88 8 166 10
173 8 22 32 13 68 -27z m438 -461 c30 -6 74 -20 99 -33 l45 -22 12 -75 c6 -41
15 -124 19 -184 l7 -109 -84 7 c-213 17 -491 83 -497 119 -4 18 83 253 99 272
12 12 130 33 195 34 28 1 76 -4 105 -9z m-449 -83 c-28 -70 -42 -84 -42 -42 0
36 25 91 46 103 11 6 20 9 21 8 1 -1 -10 -32 -25 -69z m-1827 -352 c134 -44
334 -84 423 -85 29 0 42 -4 42 -14 0 -8 -20 -101 -44 -208 -24 -106 -47 -212
-51 -236 -4 -24 -10 -41 -13 -40 -123 67 -275 103 -482 114 l-116 7 -13 256
c-6 141 -14 273 -17 293 l-6 37 99 -49 c54 -27 134 -60 178 -75z m1590 73 c-2
-29 -10 -161 -16 -294 l-12 -241 -116 -6 c-182 -10 -333 -42 -429 -91 -38 -19
-54 -23 -57 -14 -2 7 -20 90 -40 183 -21 94 -43 195 -51 225 -20 79 -20 80 29
80 89 1 289 41 422 85 78 26 230 97 250 116 19 19 25 7 20 -43z m334 -88 c41
-11 42 -11 35 -48 -3 -20 -10 -41 -15 -46 -9 -10 -119 53 -119 69 0 5 3 20 6
32 5 18 10 20 29 13 12 -5 41 -14 64 -20z m241 -56 c35 -6 35 -6 16 -42 -22
-43 -52 -65 -78 -58 -46 12 -50 19 -36 70 14 51 4 48 98 30z m245 -46 c-16
-54 -82 -97 -126 -83 -18 6 -18 7 1 43 11 20 20 42 20 49 0 9 17 13 56 13 53
0 55 -1 49 -22z m-2370 -484 c114 -20 197 -47 257 -85 63 -40 81 -71 82 -138
l1 -56 -410 0 -410 0 1 42 c1 60 55 163 111 212 l46 41 116 0 c64 0 157 -7
206 -16z m1620 -36 c60 -63 97 -136 99 -198 l1 -45 -410 0 -410 0 -3 34 c-2
19 4 54 13 78 41 107 251 180 529 182 l130 1 51 -52z"/>
<path d="M3120 4904 c-25 -2 -110 -9 -189 -15 -144 -10 -181 -15 -341 -45
-206 -39 -388 -125 -439 -208 -41 -66 -91 -416 -91 -639 0 -198 22 -328 77
-445 19 -40 39 -62 86 -96 196 -139 538 -241 922 -276 150 -14 274 -12 441 5
354 36 659 128 856 258 69 45 83 59 108 112 66 134 91 339 72 588 -13 186 -56
435 -82 487 -63 124 -359 224 -770 260 -121 11 -574 21 -650 14z m-216 -524
c14 -5 35 -24 46 -42 18 -30 20 -51 20 -236 l0 -204 -34 -34 c-33 -33 -36 -34
-116 -34 -80 0 -83 1 -116 34 l-34 34 0 210 c0 199 1 211 21 236 12 15 31 32
43 36 29 12 139 12 170 0z m1103 -23 l28 -27 0 -221 0 -221 -33 -29 c-30 -27
-38 -29 -112 -29 -74 0 -82 2 -112 29 l-33 29 0 220 c0 206 1 221 20 242 30
34 53 40 137 37 70 -2 80 -5 105 -30z m-872 -651 c52 -35 127 -49 241 -44 90
3 105 7 162 38 l63 35 20 -24 c17 -21 18 -27 6 -45 -36 -58 -214 -105 -341
-91 -162 18 -271 85 -226 140 17 21 34 19 75 -9z"/>
<path d="M897 3339 c8 -28 68 -71 94 -67 41 6 30 23 -35 55 -58 29 -63 30 -59
12z"/>
<path d="M2948 2580 c-51 -15 -98 -52 -123 -94 -21 -36 -25 -55 -25 -126 0
-166 57 -547 91 -615 47 -92 139 -158 246 -175 75 -13 361 -13 437 0 110 18
206 89 247 184 38 89 82 394 83 577 1 121 0 127 -27 166 -15 21 -46 50 -70 64
l-42 24 -395 2 c-217 1 -407 -2 -422 -7z m838 -124 c41 -41 42 -52 14 -281
-41 -343 -53 -392 -115 -451 -61 -59 -110 -69 -330 -69 -204 0 -263 10 -319
57 -60 49 -80 105 -106 293 -25 172 -30 223 -37 317 l-6 97 36 36 35 35 397 0
397 0 34 -34z"/>
<path d="M4738 1744 c-29 -33 -40 -74 -28 -105 11 -25 37 -45 47 -35 2 2 3 38
1 81 -3 73 -4 76 -20 59z"/>
</g>
</svg>
