<?xml version="1.0" encoding="UTF-8"?>
<svg version="1.1" xmlns="http://www.w3.org/2000/svg" width="1920" height="1080">
<path d="M0 0 C633.6 0 1267.2 0 1920 0 C1920 356.4 1920 712.8 1920 1080 C1286.4 1080 652.8 1080 0 1080 C0 723.6 0 367.2 0 0 Z " fill="#E3EFFE" transform="translate(0,0)"/>
<path d="M0 0 C1.54673398 -0.00481758 3.09345913 -0.01447465 4.64013672 -0.02853394 C8.88338247 -0.05313835 13.12355898 -0.0091706 17.36641498 0.04599966 C22.01428847 0.09411846 26.66202603 0.07795355 31.31008053 0.07000256 C40.32820749 0.06415969 49.34512735 0.11489361 58.36294433 0.18551717 C68.79623488 0.26477697 79.22880237 0.27346227 89.66246033 0.28215027 C117.20240563 0.33988362 144.74208249 0.4934563 172.28172302 0.63529968 C233.80609802 0.86217468 295.33047302 1.08904968 358.71922302 1.32279968 C358.71922302 219.12279968 358.71922302 436.92279968 358.71922302 661.32279968 C344.08394204 665.82596306 344.08394204 665.82596306 337.76609802 666.99076843 C337.09556396 667.11591324 336.42502991 667.24105804 335.73417664 667.36999512 C334.34378836 667.62796884 332.95273146 667.88236565 331.5610199 668.13310242 C329.455849 668.51271131 327.35312998 668.90413614 325.25047302 669.29740906 C315.10851708 671.16811649 305.29565088 672.46913934 294.98094177 672.56108093 C294.07000763 672.57078415 293.15907349 672.58048737 292.22053528 672.59048462 C289.2825526 672.61533202 286.34480019 672.6280036 283.40672302 672.63529968 C282.40422516 672.63791809 281.40172729 672.6405365 280.36885071 672.64323425 C258.99688975 672.64920986 238.12325751 671.20056412 217.71922302 664.32279968 C215.79243852 663.75410993 213.86563088 663.1854958 211.93821716 662.61894226 C190.5636212 656.21504036 169.81758475 646.40742606 151.71922302 633.32279968 C150.48491647 632.44900507 149.25053686 631.57531365 148.01609802 630.70170593 C140.48672376 625.32317805 133.48037462 619.65359323 126.71922302 613.32279968 C125.01305941 611.79953263 123.30470833 610.27871228 121.59422302 608.76029968 C110.32896399 598.60569999 100.7603183 587.47996956 91.71922302 575.32279968 C91.25354919 574.69760437 90.78787537 574.07240906 90.30809021 573.42826843 C77.8134138 556.52021819 67.53597947 538.33217292 57.92967224 519.66264343 C56.26645799 516.44758789 54.56969616 513.25067917 52.87425232 510.05253601 C45.72822057 496.55780773 38.96861447 482.91016886 32.43455505 469.10942078 C29.57631835 463.08415671 26.63296482 457.10913813 23.62644958 451.15678406 C20.81648002 445.57107805 18.14432443 439.92482068 15.50779724 434.25541687 C13.92287118 430.85236491 12.3023941 427.47656192 10.60594177 424.12748718 C9.17268306 421.28042262 7.90308686 418.4346582 6.78172302 415.44779968 C5.44806704 412.02509663 3.97274612 408.7708036 2.28172302 405.51029968 C-5.28077698 390.71410403 -5.28077698 390.71410403 -5.28077698 384.32279968 C-5.94077698 384.32279968 -6.60077698 384.32279968 -7.28077698 384.32279968 C-7.53472229 383.5145575 -7.7886676 382.70631531 -8.05030823 381.87358093 C-8.39448792 380.80494812 -8.7386676 379.73631531 -9.09327698 378.63529968 C-9.42972229 377.5795575 -9.7661676 376.52381531 -10.11280823 375.43608093 C-11.23331191 372.44932028 -12.63158892 370.0398693 -14.28077698 367.32279968 C-15.02558343 365.42000948 -15.73119512 363.50160411 -16.40577698 361.57279968 C-19.58221687 353.08938094 -23.86893065 345.21996132 -28.28077698 337.32279968 C-28.78351135 336.41529968 -29.28624573 335.50779968 -29.80421448 334.57279968 C-31.3974039 332.14508246 -33.21133405 330.35274942 -35.28077698 328.32279968 C-36.56838389 326.64262969 -37.81860263 324.93317749 -39.03077698 323.19779968 C-39.64437073 322.32897156 -40.25796448 321.46014343 -40.89015198 320.56498718 C-42.28077698 318.32279968 -42.28077698 318.32279968 -42.28077698 316.32279968 C-43.27077698 315.99279968 -44.26077698 315.66279968 -45.28077698 315.32279968 C-46.93702698 312.76029968 -46.93702698 312.76029968 -48.78077698 309.32279968 C-51.92415181 303.57407814 -55.34426308 298.09236556 -58.96827698 292.63529968 C-63.07037999 286.38362003 -66.43837045 280.25173316 -69.28077698 273.32279968 C-69.86119808 272.08773745 -70.4462275 270.85483527 -71.03468323 269.62358093 C-88.07882576 232.98079969 -94.32062043 188.14557207 -87.28077698 148.32279968 C-87.03085999 146.8641449 -87.03085999 146.8641449 -86.77589417 145.37602234 C-83.97028655 129.23772155 -80.85625877 113.13357776 -74.41358948 97.99076843 C-73.53683128 95.92585171 -72.70741302 93.84079962 -71.89796448 91.74858093 C-61.00090588 63.76023844 -44.66061513 38.26975082 -26.10644716 14.73973638 C-24.21911388 12.31098912 -24.21911388 12.31098912 -22.51927048 9.53466386 C-16.24923087 0.40805499 -10.3372496 -0.23873785 0 0 Z " fill="#007DAD" transform="translate(1561.280776977539,-1.3227996826171875)"/>
<path d="M0 0 C34.32 0 68.64 0 104 0 C104 152.79 104 305.58 104 463 C62.37637868 468.20295267 62.37637868 468.20295267 51.5 468.125 C50.78005859 468.12089111 50.06011719 468.11678223 49.31835938 468.11254883 C25.74355584 467.86850868 25.74355584 467.86850868 18.625 461.1875 C4.69276206 445.8524738 -7.08551838 428.25565384 -18.88549805 411.27978516 C-23.92777385 404.04863089 -29.17264963 396.9888359 -34.50585938 389.97070312 C-37.14366623 386.49155657 -39.75772714 382.99460299 -42.375 379.5 C-43.32021007 378.23950652 -44.26551904 376.97908719 -45.2109375 375.71875 C-45.66597656 375.11200439 -46.12101562 374.50525879 -46.58984375 373.88012695 C-47.57151157 372.57129318 -48.55329078 371.26254293 -49.53515625 369.95385742 C-51.76020739 366.98793991 -53.98413465 364.02123819 -56.203125 361.05078125 C-61.31068729 354.2179546 -66.47012591 347.42734366 -71.6953125 340.68408203 C-72.57147088 339.55314256 -73.44645506 338.42129253 -74.3203125 337.28857422 C-79.9377934 330.01418283 -85.71114935 322.91954998 -91.7277832 315.97119141 C-95.24272875 311.90716086 -98.62286346 307.75708185 -101.95703125 303.54296875 C-104.34285819 300.57323006 -106.7876716 297.65624844 -109.25 294.75 C-109.7143042 294.20174561 -110.1786084 293.65349121 -110.65698242 293.08862305 C-113.05799326 290.26180506 -115.47452136 287.44989176 -117.9140625 284.65625 C-134.35437075 265.793446 -146.72240706 248.46375276 -153 224 C-153.26828613 223.0560437 -153.26828613 223.0560437 -153.54199219 222.09301758 C-156.32485793 209.37579583 -155.21969212 194.1990739 -148.234375 183.2265625 C-144.02257901 177.1741785 -139.35493128 171.09095579 -134 166 C-133.34 166 -132.68 166 -132 166 C-131.79761719 165.46890625 -131.59523438 164.9378125 -131.38671875 164.390625 C-129.39542187 160.95774137 -126.65517903 158.49128259 -123.8125 155.75 C-119.62697389 151.64152913 -115.55843041 147.52259554 -111.76171875 143.046875 C-108.61354516 139.38913008 -105.31011821 135.86807383 -102.0390625 132.3203125 C-99.98422672 130.18053118 -99.98422672 130.18053118 -99 128 C-98.34 128 -97.68 128 -97 128 C-96.72470459 127.40558105 -96.44940918 126.81116211 -96.16577148 126.19873047 C-95.0556807 124.10501787 -93.92151279 122.57802695 -92.34765625 120.8203125 C-91.56237549 119.93255127 -91.56237549 119.93255127 -90.76123047 119.02685547 C-90.20064941 118.39924316 -89.64006836 117.77163086 -89.0625 117.125 C-84.19050118 111.59385634 -79.53128098 105.95718422 -75.0234375 100.12695312 C-71.97330042 96.19713883 -68.80988945 92.39275985 -65.5625 88.625 C-60.45729035 82.67497808 -55.76178737 76.46273508 -51.09765625 70.1640625 C-48.50074695 66.65811132 -45.8548691 63.19296894 -43.19091797 59.73779297 C-32.93634671 46.43298642 -23.11950115 32.8394758 -13.75195312 18.89501953 C-9.36854994 12.40775562 -4.71996432 6.29328576 0 0 Z " fill="#E3EFFE" transform="translate(1816,0)"/>
<path d="M0 0 C0.99 0.495 0.99 0.495 2 1 C2.625 4.0625 2.625 4.0625 3 7 C3.66 7 4.32 7 5 7 C5.27972656 7.71542969 5.55945312 8.43085938 5.84765625 9.16796875 C8.59336504 15.99251182 11.74155664 22.42748046 15.28515625 28.87109375 C16.88388193 31.78813081 18.43119241 34.72182358 19.9375 37.6875 C20.33839844 38.47511719 20.73929688 39.26273437 21.15234375 40.07421875 C22 42 22 42 22 44 C22.66 44 23.32 44 24 44 C26.43700374 48.784118 28.84112191 53.55537825 30.9375 58.5 C33.16862178 63.61261104 36.07547797 68.26133596 39 73 C43 79.65030675 43 79.65030675 43 82 C43.66 82 44.32 82 45 82 C45 83.32 45 84.64 45 86 C45.66 86 46.32 86 47 86 C47.4021875 86.80050781 47.4021875 86.80050781 47.8125 87.6171875 C50.73550018 93.17473389 54.15251098 97.86871266 58.23046875 102.640625 C60.01925491 105.02567322 61.02991172 107.1942062 62 110 C62.66 110 63.32 110 64 110 C64.2475 110.5775 64.495 111.155 64.75 111.75 C66.18081368 114.32546462 67.88918881 115.95127149 70 118 C74 122.66666667 74 122.66666667 74 125 C74.66 125 75.32 125 76 125 C77.28535171 126.49514474 78.50373806 128.04820119 79.6875 129.625 C82.67734923 133.46831528 85.65182063 136.71819456 89.45703125 139.74609375 C91.09982531 141.08112386 92.5934877 142.41608975 94 144 C94 144.66 94 145.32 94 146 C94.56460937 146.25394531 95.12921875 146.50789062 95.7109375 146.76953125 C98.29825174 148.16032303 100.36380655 149.81299273 102.625 151.6875 C107.58042804 155.72115943 112.7202566 159.40528109 118 163 C117.01 163.33 116.02 163.66 115 164 C112.50889516 162.46004428 110.25465586 160.89719566 107.9375 159.125 C107.26501221 158.62049316 106.59252441 158.11598633 105.8996582 157.59619141 C100.31721883 153.35709122 95.1154613 148.78985405 90 144 C88.29383638 142.47673294 86.58548531 140.9559126 84.875 139.4375 C73.60974097 129.28290031 64.04109528 118.15716987 55 106 C54.53432617 105.37480469 54.06865234 104.74960937 53.58886719 104.10546875 C41.09721806 87.20151508 30.8217944 69.01875861 21.21923828 50.35302734 C19.95324399 47.90976483 18.66547528 45.47911526 17.37109375 43.05078125 C1.82579083 13.8760103 1.82579083 13.8760103 0 0 Z " fill="#0066B1" transform="translate(1598,468)"/>
<path d="M0 0 C0.66 0.33 1.32 0.66 2 1 C1.78851318 1.52062012 1.57702637 2.04124023 1.35913086 2.57763672 C-0.98260237 8.84746076 -1.50717543 14.46458664 -1.4375 21.125 C-1.42722778 22.63960815 -1.42722778 22.63960815 -1.41674805 24.18481445 C-1.14110018 37.12994031 2.6965728 48.25550191 8 60 C8.39832031 60.90492188 8.79664063 61.80984375 9.20703125 62.7421875 C10.12850488 64.83259765 11.05903482 66.91831166 12 69 C11.01 69 10.02 69 9 69 C9.33 72.3 9.66 75.6 10 79 C9.34 79 8.68 79 8 79 C7.80664062 78.28714844 7.61328125 77.57429688 7.4140625 76.83984375 C6.87301092 74.8497382 6.32993821 72.86018136 5.78515625 70.87109375 C5.20484308 68.74905307 4.6317088 66.6250462 4.0625 64.5 C3.17813492 61.58679738 2.16266074 58.83374736 1.0625 56 C-1.48325196 49.16365484 -2.72373941 42.16446284 -4 35 C-4.66 35.66 -5.32 36.32 -6 37 C-6.22245393 35.39773045 -6.42746669 33.79303233 -6.625 32.1875 C-6.74101563 31.29417969 -6.85703125 30.40085938 -6.9765625 29.48046875 C-7 27 -7 27 -5 24 C-4.61343223 21.42574503 -4.30762592 18.89961217 -4.0625 16.3125 C-3.43050209 10.43848186 -2.48296887 5.41738663 0 0 Z " fill="#119EB9" transform="translate(1664,187)"/>
<path d="M0 0 C0.99 0.33 1.98 0.66 3 1 C-0.35384973 5.54802349 -3.77277651 10.04560057 -7.25 14.5 C-7.91515625 15.3559375 -8.5803125 16.211875 -9.265625 17.09375 C-10.12414063 18.03734375 -10.12414063 18.03734375 -11 19 C-11.66 19 -12.32 19 -13 19 C-13.40182495 19.88510254 -13.40182495 19.88510254 -13.81176758 20.78808594 C-15.01173483 23.02184458 -16.26612013 24.56273425 -18.01171875 26.390625 C-18.60130371 27.01380615 -19.19088867 27.6369873 -19.79833984 28.27905273 C-20.4217627 28.92946533 -21.04518555 29.57987793 -21.6875 30.25 C-22.96580126 31.59935397 -24.24315648 32.94960483 -25.51953125 34.30078125 C-26.12748535 34.94354004 -26.73543945 35.58629883 -27.36181641 36.24853516 C-29.25133561 38.2687156 -31.07594415 40.3365047 -32.875 42.4375 C-36.37020345 46.50480836 -40.16521524 50.25485956 -44 54 C-44.72192383 52.25024414 -44.72192383 52.25024414 -45 50 C-43.5847168 48.03295898 -43.5847168 48.03295898 -41.44921875 45.99609375 C-40.68802734 45.25552734 -39.92683594 44.51496094 -39.14257812 43.75195312 C-37.92731445 42.60629883 -37.92731445 42.60629883 -36.6875 41.4375 C-35.10612474 39.91738868 -33.52661468 38.39533396 -31.94921875 36.87109375 C-30.88707153 35.86453735 -30.88707153 35.86453735 -29.8034668 34.83764648 C-27.81712653 32.92816809 -27.81712653 32.92816809 -26 30 C-25.34 30 -24.68 30 -24 30 C-23.60603027 29.12275269 -23.60603027 29.12275269 -23.20410156 28.2277832 C-21.94021216 25.88938279 -20.57021174 24.27064752 -18.734375 22.35546875 C-17.76951172 21.33936523 -17.76951172 21.33936523 -16.78515625 20.30273438 C-16.11355469 19.60470703 -15.44195313 18.90667969 -14.75 18.1875 C-6.00451477 9.9924446 -6.00451477 9.9924446 0 0 Z " fill="#147CA3" transform="translate(1730,109)"/>
<path d="M0 0 C4.875 4.625 4.875 4.625 6 8 C6.66 8 7.32 8 8 8 C9.28535171 9.49514474 10.50373806 11.04820119 11.6875 12.625 C14.67734923 16.46831528 17.65182063 19.71819456 21.45703125 22.74609375 C23.09982531 24.08112386 24.5934877 25.41608975 26 27 C26 27.66 26 28.32 26 29 C26.84691406 29.38091797 26.84691406 29.38091797 27.7109375 29.76953125 C30.29825174 31.16032303 32.36380655 32.81299273 34.625 34.6875 C39.58042804 38.72115943 44.7202566 42.40528109 50 46 C49.01 46.33 48.02 46.66 47 47 C44.50889516 45.46004428 42.25465586 43.89719566 39.9375 42.125 C39.26501221 41.62049316 38.59252441 41.11598633 37.8996582 40.59619141 C32.31721883 36.35709122 27.1154613 31.78985405 22 27 C20.29383638 25.47673294 18.58548531 23.9559126 16.875 22.4375 C0.21587284 7.42856939 0.21587284 7.42856939 -0.25 2.1875 C-0.1675 1.465625 -0.085 0.74375 0 0 Z " fill="#1656A0" transform="translate(1666,585)"/>
<path d="M0 0 C1.37562854 1.28965176 2.70766393 2.62689293 4 4 C4 4.66 4 5.32 4 6 C4.53625 6.226875 5.0725 6.45375 5.625 6.6875 C8.84930329 8.46935182 11.29649295 10.48082298 14 13 C14 13.99 14 14.98 14 16 C14.5775 16.12375 15.155 16.2475 15.75 16.375 C18.02335767 17.00648824 19.9253529 17.88858191 22 19 C22 19.99 22 20.98 22 22 C23.65 22 25.3 22 27 22 C27 22.99 27 23.98 27 25 C28.65 25.66 30.3 26.32 32 27 C32 27.66 32 28.32 32 29 C32.99 29 33.98 29 35 29 C35 29.66 35 30.32 35 31 C33.02 30.67 31.04 30.34 29 30 C29 29.34 29 28.68 29 28 C28.31550781 27.77570312 27.63101562 27.55140625 26.92578125 27.3203125 C23.22494499 25.6502422 20.34130699 23.40497704 17.1875 20.875 C16.57237549 20.38507568 15.95725098 19.89515137 15.32348633 19.39038086 C1.9482349 8.60320625 1.9482349 8.60320625 1 3 C0.34 3 -0.32 3 -1 3 C-0.67 2.01 -0.34 1.02 0 0 Z " fill="#0059B0" transform="translate(1760,535)"/>
<path d="M0 0 C3.04735934 0.31786515 4.01165314 1.01204922 6.18359375 3.2578125 C6.92738281 4.20398438 7.67117188 5.15015625 8.4375 6.125 C9.21867187 7.11628906 9.99984375 8.10757813 10.8046875 9.12890625 C11.89136719 10.55009766 11.89136719 10.55009766 13 12 C13.55945312 12.73089844 14.11890625 13.46179688 14.6953125 14.21484375 C18 18.68089286 18 18.68089286 18 21 C18.66 21 19.32 21 20 21 C20.28875 21.639375 20.5775 22.27875 20.875 22.9375 C21.82823451 25.15206079 21.82823451 25.15206079 24 26 C24.625 28.5625 24.625 28.5625 25 31 C22 31 22 31 20.4140625 29.4453125 C18.25486341 26.64495385 16.10417125 23.84188866 14 21 C13.46358887 20.2766748 12.92717773 19.55334961 12.37451172 18.80810547 C10.59547917 16.398906 8.82666582 13.98260463 7.0625 11.5625 C6.48258301 10.76924316 5.90266602 9.97598633 5.30517578 9.15869141 C4.76231934 8.4063623 4.21946289 7.6540332 3.66015625 6.87890625 C3.17168213 6.2041626 2.68320801 5.52941895 2.17993164 4.83422852 C1 3 1 3 0 0 Z " fill="#0D63B6" transform="translate(1642,557)"/>
<path d="M0 0 C6.25631969 9.38447953 10.24677079 20.29483172 13.7890625 30.93359375 C14.92936164 33.82112544 16.13582748 35.56686167 18 38 C19.23786755 40.46746427 20.42127648 42.92680825 21.5625 45.4375 C21.86607422 46.09298828 22.16964844 46.74847656 22.48242188 47.42382812 C23.33527583 49.27632354 24.16819456 51.13795842 25 53 C25.42152344 53.91910156 25.84304688 54.83820313 26.27734375 55.78515625 C27 58 27 58 26 61 C25.56429688 60.12859375 25.12859375 59.2571875 24.6796875 58.359375 C24.39456299 57.78936768 24.10943848 57.21936035 23.81567383 56.63208008 C23.1819192 55.36407738 22.54895987 54.09567692 21.91674805 52.8269043 C20.40885014 49.80318212 18.89023416 46.78744167 17.33984375 43.78515625 C14.45391789 38.1683031 12.05988702 32.61229811 9.9921875 26.6484375 C8.67987732 23.1454993 7.01579266 19.88257916 5.30859375 16.55859375 C3.86997683 13.74577559 2.47911366 10.91701661 1.125 8.0625 C0.69445313 7.16660156 0.26390625 6.27070313 -0.1796875 5.34765625 C-1 3 -1 3 0 0 Z " fill="#26A1D4" transform="translate(1560,391)"/>
<path d="M0 0 C0.66 0 1.32 0 2 0 C2.27150879 0.57854736 2.54301758 1.15709473 2.82275391 1.75317383 C10.97281543 19.34041662 10.97281543 19.34041662 20.625 36.125 C22.89700013 39.66492278 24.581065 43.339184 26.203125 47.21484375 C26.86568526 48.98483984 26.86568526 48.98483984 28 50 C28.04063832 51.66617115 28.042721 53.33388095 28 55 C24.6903491 52.26062741 23.13682171 48.60126724 21.3125 44.8125 C20.60549358 43.37368572 19.89846156 41.93488401 19.19140625 40.49609375 C18.46084221 38.99744228 17.73037391 37.49874414 17 36 C15.59023659 33.12154824 14.17188814 30.24747742 12.75 27.375 C12.43329346 26.7250708 12.11658691 26.0751416 11.7902832 25.40551758 C10.31299121 22.41877644 8.75463903 19.6326439 6.90234375 16.859375 C5.14855204 14.22328561 3.94312974 11.81925215 2.8125 8.875 C2.48894531 8.04742187 2.16539063 7.21984375 1.83203125 6.3671875 C1.0901188 4.25639433 0.4971992 2.17964092 0 0 Z " fill="#1986CB" transform="translate(1602,482)"/>
<path d="M0 0 C4.83640885 5.55291386 8.53652532 12.05748044 11 19 C11.66 19 12.32 19 13 19 C13 20.32 13 21.64 13 23 C13.66 23 14.32 23 15 23 C16.6875 25.375 16.6875 25.375 18 28 C17.67 28.66 17.34 29.32 17 30 C16.34 29.01 15.68 28.02 15 27 C14.35643555 26.85054932 13.71287109 26.70109863 13.04980469 26.54711914 C8.979149 25.46060897 7.31312883 20.85709542 5.25 17.4375 C4.74339844 16.65052734 4.23679687 15.86355469 3.71484375 15.05273438 C0.4613754 9.73405903 -0.59910854 6.22644951 0 0 Z " fill="#0560B3" transform="translate(1630,531)"/>
<path d="M0 0 C0.66 0 1.32 0 2 0 C1.77027625 3.90530377 1.60290917 6.30288627 -1 9.3125 C-1.44085937 9.70050781 -1.88171875 10.08851563 -2.3359375 10.48828125 C-4.58302401 12.52964857 -6.58583597 14.75160579 -8.625 17 C-9.75808594 18.2375 -9.75808594 18.2375 -10.9140625 19.5 C-12.91016279 21.89232994 -14.47873498 24.28691589 -16 27 C-16.89707586 24.57789518 -17.07746731 23.27066321 -16.359375 20.76171875 C-14.59821783 17.18373564 -12.2500223 14.47732793 -9.625 11.5 C-8.65826463 10.38592796 -7.69210965 9.27135201 -6.7265625 8.15625 C-6.26282227 7.62644531 -5.79908203 7.09664062 -5.32128906 6.55078125 C-4.08977961 5.10537326 -2.92827746 3.60112005 -1.7734375 2.09375 C-0.89558594 1.05734375 -0.89558594 1.05734375 0 0 Z " fill="#128FB0" transform="translate(1683,159)"/>
<path d="M0 0 C1.47978969 0.11739459 2.95881184 0.24446132 4.4375 0.375 C5.26121094 0.44460938 6.08492187 0.51421875 6.93359375 0.5859375 C9.4197258 0.9216445 11.72380969 1.38769868 14.15625 1.96875 C19.42108947 3.17631727 24.68793347 3.66870416 30.0625 4.125 C31.02349609 4.21136719 31.98449219 4.29773438 32.97460938 4.38671875 C35.31599448 4.59639503 37.65771078 4.8007244 40 5 C37.75660993 7.07041841 36.66045046 8.01998178 33.546875 7.92578125 C32.62390625 7.72339844 31.7009375 7.52101563 30.75 7.3125 C25.77285946 6.31950868 20.8496131 5.57680022 15.8125 5 C10.10788953 4.32438298 4.5751337 3.39378343 -1 2 C-0.67 1.34 -0.34 0.68 0 0 Z " fill="#003A76" transform="translate(1855,603)"/>
<path d="M0 0 C2.99887988 3.42604591 4.20316069 7.15793027 5.5 11.4375 C6.88769035 15.99001962 8.50808118 19.92869602 11 24 C11.6875 27.8125 11.6875 27.8125 12 31 C9.00406458 29.50203229 8.9054845 27.36854964 7.8125 24.25 C5.51284332 17.96750419 2.61792273 12.52135419 -0.83984375 6.77734375 C-2 4 -2 4 -1.19140625 1.62890625 C-0.79824219 1.09136719 -0.40507813 0.55382812 0 0 Z " fill="#1AA7D3" transform="translate(1537,336)"/>
<path d="M0 0 C1.37562854 1.28965176 2.70766393 2.62689293 4 4 C4 4.66 4 5.32 4 6 C4.53625 6.226875 5.0725 6.45375 5.625 6.6875 C8.87720486 8.48477111 11.29921515 10.4219781 14 13 C14 14.32 14 15.64 14 17 C10.65685181 15.54253764 8.3921789 13.69015913 5.8125 11.125 C4.77029297 10.10792969 4.77029297 10.10792969 3.70703125 9.0703125 C1.9745548 6.96913968 1.39944297 5.65897855 1 3 C0.34 3 -0.32 3 -1 3 C-0.67 2.01 -0.34 1.02 0 0 Z " fill="#004EA9" transform="translate(1760,535)"/>
<path d="M0 0 C4.12731046 1.4004698 6.89122261 3.35864156 10.1875 6.1875 C15.26106731 10.44764212 20.51047951 14.29665755 26 18 C25.01 18.33 24.02 18.66 23 19 C20.47190374 17.41656604 18.16999565 15.80946232 15.8125 14 C15.14210693 13.4961377 14.47171387 12.99227539 13.78100586 12.47314453 C3.97829711 5.04184819 3.97829711 5.04184819 0 1 C0 0.67 0 0.34 0 0 Z " fill="#1D5695" transform="translate(1690,613)"/>
<path d="M0 0 C0.66 0 1.32 0 2 0 C2 0.99 2 1.98 2 3 C2.66 3 3.32 3 4 3 C5.70353355 6.42978088 7.38500046 9.86992063 9.0625 13.3125 C9.79049805 14.77719727 9.79049805 14.77719727 10.53320312 16.27148438 C10.98759766 17.20927734 11.44199219 18.14707031 11.91015625 19.11328125 C12.33433838 19.97735596 12.75852051 20.84143066 13.19555664 21.73168945 C14 24 14 24 13 27 C11.58214979 24.33395686 10.16569508 21.66718728 8.75 19 C8.35425781 18.25621094 7.95851563 17.51242187 7.55078125 16.74609375 C0 2.51101434 0 2.51101434 0 0 Z " fill="#1A8CCC" transform="translate(1588,455)"/>
<path d="M0 0 C0.99 0 1.98 0 3 0 C3.69171686 1.83304968 4.38139488 3.66688715 5.0625 5.50390625 C5.73297286 7.28904025 6.42268822 9.06699423 7.125 10.83984375 C7.49625 11.80019531 7.8675 12.76054687 8.25 13.75 C8.78367187 15.10351562 8.78367187 15.10351562 9.328125 16.484375 C10.03948983 19.14785728 9.93129629 20.44490504 9 23 C7.74335022 20.09399739 7 18.20395416 7 15 C6.34 15 5.68 15 5 15 C3.33333333 10 1.66666667 5 0 0 Z " fill="#28A5D4" transform="translate(1549,368)"/>
<path d="M0 0 C0.77923828 0.00451172 1.55847656 0.00902344 2.36132812 0.01367188 C4.26175268 0.02533092 6.16213706 0.04326123 8.0625 0.0625 C8.0625 1.0525 8.0625 2.0425 8.0625 3.0625 C-0.00844823 3.16716648 -7.9249678 3.09637512 -15.9375 2.0625 C-15.9375 1.7325 -15.9375 1.4025 -15.9375 1.0625 C-10.57260405 0.15766363 -5.43432543 -0.06053662 0 0 Z " fill="#003B78" transform="translate(1911.9375,607.9375)"/>
<path d="M0 0 C3.37703542 2.74706856 4.82370908 6.50104862 6.5625 10.375 C6.86607422 11.035 7.16964844 11.695 7.48242188 12.375 C8.33671294 14.24364538 9.16984426 16.12053993 10 18 C10.42152344 18.92039062 10.84304688 19.84078125 11.27734375 20.7890625 C12 23 12 23 11 26 C0 4.27808989 0 4.27808989 0 0 Z " fill="#1D95CE" transform="translate(1575,426)"/>
<path d="M0 0 C2.54819774 2.26506466 3.76996322 4.36023455 5.0625 7.5 C6.21853373 10.28562344 7.30923391 12.46385086 9 15 C9.125 17.6875 9.125 17.6875 9 20 C6.07112568 17.44932867 4.55279142 14.57120671 2.8125 11.125 C2.28269531 10.09632813 1.75289062 9.06765625 1.20703125 8.0078125 C0.01855965 5.04624895 -0.26122911 3.14635947 0 0 Z " fill="#197FC7" transform="translate(1621,517)"/>
<path d="M0 0 C0.66 0 1.32 0 2 0 C1.67 2.31 1.34 4.62 1 7 C0.01 7.33 -0.98 7.66 -2 8 C-2.33 7.67 -2.66 7.34 -3 7 C-4.98 9.31 -6.96 11.62 -9 14 C-9.66 13.67 -10.32 13.34 -11 13 C-10.06027344 11.96939453 -10.06027344 11.96939453 -9.1015625 10.91796875 C-8.28429688 10.01691406 -7.46703125 9.11585938 -6.625 8.1875 C-5.81289062 7.29417969 -5.00078125 6.40085938 -4.1640625 5.48046875 C-1.90927093 3.00367326 -1.90927093 3.00367326 0 0 Z " fill="#058DAD" transform="translate(1683,159)"/>
<path d="M0 0 C1.96529009 3.45207476 2.7746477 6.88476226 3.625 10.75 C3.88539062 11.92046875 4.14578125 13.0909375 4.4140625 14.296875 C4.60742188 15.18890625 4.80078125 16.0809375 5 17 C3.68 17 2.36 17 1 17 C-0.13480527 13.39006828 -0.10015767 10.0157673 -0.0625 6.25 C-0.05347656 5.07953125 -0.04445313 3.9090625 -0.03515625 2.703125 C-0.02355469 1.81109375 -0.01195312 0.9190625 0 0 Z " fill="#23A3BE" transform="translate(1662,220)"/>
<path d="M0 0 C4.85858119 5.58736837 7.19679457 12.93744538 9 20 C5.3864696 16.85746395 3.89703485 13.90584456 2.25 9.4375 C1.82203125 8.30183594 1.3940625 7.16617188 0.953125 5.99609375 C0 3 0 3 0 0 Z " fill="#0059AA" transform="translate(1621,512)"/>
<path d="M0 0 C0.33 0 0.66 0 1 0 C1.33 3.63 1.66 7.26 2 11 C2.66 11 3.32 11 4 11 C4 13.64 4 16.28 4 19 C3.34 18.67 2.68 18.34 2 18 C1.40234375 15.8203125 1.40234375 15.8203125 0.9375 13.125 C0.43729298 10.2891156 -0.08689283 7.73932151 -1 5 C-0.5625 2.3125 -0.5625 2.3125 0 0 Z " fill="#00A7C1" transform="translate(1675,263)"/>
<path d="M0 0 C1.33333333 0.66666667 2.66666667 1.33333333 4 2 C4.721875 2.268125 5.44375 2.53625 6.1875 2.8125 C8 4 8 4 8.75 6.625 C8.87375 7.800625 8.87375 7.800625 9 9 C6 9 6 9 4.39453125 7.5390625 C3.61142578 6.59160156 3.61142578 6.59160156 2.8125 5.625 C2.28269531 4.99851562 1.75289062 4.37203125 1.20703125 3.7265625 C0 2 0 2 0 0 Z " fill="#185FAF" transform="translate(1658,579)"/>
<path d="M0 0 C0.33 0.99 0.66 1.98 1 3 C1.66 3 2.32 3 3 3 C4.59138085 7.17737474 5.21278058 10.53160785 5 15 C3 14 3 14 2.1484375 12.109375 C-0.41509434 4.28930818 -0.41509434 4.28930818 0 0 Z " fill="#00A8C2" transform="translate(1684,293)"/>
<path d="M0 0 C5.80205656 5.64524422 5.80205656 5.64524422 8 9 C8 9.66 8 10.32 8 11 C8.66 11 9.32 11 10 11 C10.33 12.32 10.66 13.64 11 15 C5.43275309 12.61403704 3.46417295 8.23162873 1 3 C0.67 2.01 0.34 1.02 0 0 Z " fill="#00479D" transform="translate(1652,567)"/>
<path d="M0 0 C1.4606285 2.64738916 2 3.89448334 2 7 C2.66 7 3.32 7 4 7 C4.66 9.31 5.32 11.62 6 14 C5.34 14.66 4.68 15.32 4 16 C2.74335022 13.09399739 2 11.20395416 2 8 C1.34 8 0.68 8 0 8 C0 5.36 0 2.72 0 0 Z " fill="#00A4C9" transform="translate(1704,350)"/>
<path d="M0 0 C0.66 0 1.32 0 2 0 C5.44419134 9.41002278 5.44419134 9.41002278 5 14 C1.54499217 11.33022122 0.94383648 8.13835997 0 4 C0 2.68 0 1.36 0 0 Z " fill="#00A6C4" transform="translate(1694,322)"/>
<path d="M0 0 C4.875 4.625 4.875 4.625 6 8 C6.66 8 7.32 8 8 8 C7.67 8.66 7.34 9.32 7 10 C3.45418941 8.1337839 1.3289144 6.8659328 0 3 C0 2.01 0 1.02 0 0 Z " fill="#064B9B" transform="translate(1666,585)"/>
<path d="M0 0 C1.32 0.33 2.64 0.66 4 1 C1.36 3.64 -1.28 6.28 -4 9 C-4.66 8.67 -5.32 8.34 -6 8 C-4.02 5.36 -2.04 2.72 0 0 Z " fill="#1C90A5" transform="translate(1546,0)"/>
<path d="M0 0 C0.33 0.66 0.66 1.32 1 2 C-1.7479213 6.27454425 -4.69250989 10.14126153 -8 14 C-8.66 13.67 -9.32 13.34 -10 13 C-9.16855469 11.96939453 -9.16855469 11.96939453 -8.3203125 10.91796875 C-7.59585937 10.01691406 -6.87140625 9.11585937 -6.125 8.1875 C-5.40570312 7.29417969 -4.68640625 6.40085937 -3.9453125 5.48046875 C-1.92059294 2.96429047 -1.92059294 2.96429047 0 0 Z " fill="#3996AA" transform="translate(1537,11)"/>
<path d="M0 0 C0.33 0 0.66 0 1 0 C1.05391993 1.79133978 1.09275571 3.58313899 1.125 5.375 C1.14820313 6.37273437 1.17140625 7.37046875 1.1953125 8.3984375 C1 11 1 11 -1 13 C-1.22245393 11.39773045 -1.42746669 9.79303233 -1.625 8.1875 C-1.74101563 7.29417969 -1.85703125 6.40085938 -1.9765625 5.48046875 C-2 3 -2 3 0 0 Z " fill="#00A9C3" transform="translate(1659,211)"/>
<path d="M0 0 C3.39460785 1.37928277 4.72525168 2.64656429 6.3125 5.9375 C6.65925781 6.62714844 7.00601562 7.31679688 7.36328125 8.02734375 C8 10 8 10 7 13 C5.83072457 11.02237345 4.66464427 9.04285742 3.5 7.0625 C2.8503125 5.96035156 2.200625 4.85820313 1.53125 3.72265625 C0 1 0 1 0 0 Z " fill="#1077C5" transform="translate(1634,544)"/>
<path d="M0 0 C2.76623726 1.38311863 2.95402386 2.900837 4.0625 5.75 C4.40410156 6.61109375 4.74570313 7.4721875 5.09765625 8.359375 C5.9655328 10.89913495 6.53926642 13.35909413 7 16 C6.67 15.01 6.34 14.02 6 13 C5.01 12.67 4.02 12.34 3 12 C2.05078125 9.27734375 2.05078125 9.27734375 1.3125 5.9375 C1.06113281 4.83277344 0.80976562 3.72804688 0.55078125 2.58984375 C0.36902344 1.73519531 0.18726563 0.88054687 0 0 Z " fill="#037EC1" transform="translate(1584,442)"/>
<path d="M0 0 C2 1 2 1 3.1875 3.8125 C3.9946573 6.97904018 3.91292822 8.01517795 3 11 C2.30034557 9.73581754 1.61565237 8.46334598 0.9375 7.1875 C0.55464844 6.47980469 0.17179687 5.77210938 -0.22265625 5.04296875 C-1 3 -1 3 0 0 Z " fill="#2CA5D0" transform="translate(1545,356)"/>
<path d="M0 0 C0.66 0 1.32 0 2 0 C2 1.65 2 3.3 2 5 C2.66 5 3.32 5 4 5 C4 6.32 4 7.64 4 9 C3.34 9 2.68 9 2 9 C0.50178941 5.62902617 0 3.79557881 0 0 Z " fill="#006EAB" transform="translate(1578,426)"/>
<path d="M0 0 C2.15377564 2.62198774 3.40072174 4.64404172 4 8 C2.02 6.68 0.04 5.36 -2 4 C-1.34 2.68 -0.68 1.36 0 0 Z " fill="#069BC9" transform="translate(1537,336)"/>
<path d="M0 0 C2 2 2 2 2 5 C2.66 5 3.32 5 4 5 C4 6.65 4 8.3 4 10 C3.34 10 2.68 10 2 10 C1.34 6.7 0.68 3.4 0 0 Z " fill="#00A9C3" transform="translate(1680,283)"/>
<path d="M0 0 C2.50037734 2.17424117 3.43628586 3.73045798 4 7 C3.01 7 2.02 7 1 7 C0.67 4.69 0.34 2.38 0 0 Z " fill="#0D74C0" transform="translate(1621,517)"/>
</svg>
